# xmcd CD database file
#
# Track frame offsets:
#	150
#	19386
#	43117
#
# Disc length: 946 seconds
#
# Revision: 2
# Processed by: cddbd v1.5.1PL0 Copyright (c) Steve Scherf et al.
# Submitted via: CDex 1.51
#
DISCID=2103b003
DTITLE=栗林みな実 - Shining☆Days Re-Product and Remix
DYEAR=2005
DGENRE=General Pop
TTITLE0=Shining☆Days BURST GROOVE MIX
TTITLE1=Shining☆Days verbose:trance MIX
TTITLE2=Shining☆Days LOVE FLARE EASY FILTER MM MIX
EXTD=YEAR: 2005
EXTT0=
EXTT1=
EXTT2=
PLAYORDER=
